<svg xmlns="http://www.w3.org/2000/svg" width="820" height="390" viewBox="0 0 820 390" role="img" aria-labelledby="title desc">
  <title id="title">Language Distribution</title>
  <desc id="desc">Auto-generated pie chart of primary programming languages across repositories.</desc>
  <style>
    .bg { fill: #0f172a; }
    .label { font: 600 16px 'Segoe UI', Arial, sans-serif; fill: #e5e7eb; }
    .value { font: 500 14px 'Segoe UI', Arial, sans-serif; fill: #cbd5e1; }
    .title { font: 700 22px 'Segoe UI', Arial, sans-serif; fill: #f8fafc; }
    .subtitle { font: 500 13px 'Segoe UI', Arial, sans-serif; fill: #94a3b8; }
  </style>
  <rect width="820" height="390" class="bg" rx="12" />
  <text x="38" y="46" class="title">Project Language Distribution</text>
  <text x="38" y="68" class="subtitle">Auto-updated via GitHub Actions • Last refresh: 2026-07-20</text>
  <g>
    <path d="M 210 195 L 277.60980047057285 281.7693199254744 A 110 110 0 0 0 210 85 Z" fill="#3b82f6" />
    <path d="M 210 195 L 101.59162427998781 213.64467950243912 A 110 110 0 0 0 277.60980047057285 281.7693199254744 Z" fill="#f59e0b" />
    <path d="M 210 195 L 123.6122716103546 126.90330122776248 A 110 110 0 0 0 101.59162427998781 213.64467950243912 Z" fill="#ef4444" />
    <path d="M 210 195 L 147.6636601005574 104.36788247016867 A 110 110 0 0 0 123.6122716103546 126.90330122776248 Z" fill="#10b981" />
    <path d="M 210 195 L 168.8671118091704 92.9799749603995 A 110 110 0 0 0 147.6636601005574 104.36788247016867 Z" fill="#8b5cf6" />
    <path d="M 210 195 L 209.99999999999997 85 A 110 110 0 0 0 168.8671118091704 92.9799749603995 Z" fill="#64748b" />
    <circle cx="210" cy="195" r="56" fill="#0f172a" />
    <text x="210" y="193" text-anchor="middle" class="label">Languages</text>
    <text x="210" y="213" text-anchor="middle" class="value">6 groups</text>
  </g>
  <g transform="translate(430,0)">
    
    <rect x="0" y="95" width="18" height="18" rx="3" fill="#3b82f6" />
    <text x="30" y="109" class="label">C++</text>
    <text x="220" y="109" class="value">39.5%</text>

    <rect x="0" y="133" width="18" height="18" rx="3" fill="#f59e0b" />
    <text x="30" y="147" class="label">Jupyter Notebook</text>
    <text x="220" y="147" class="value">32.8%</text>

    <rect x="0" y="171" width="18" height="18" rx="3" fill="#ef4444" />
    <text x="30" y="185" class="label">Python</text>
    <text x="220" y="185" class="value">13.3%</text>

    <rect x="0" y="209" width="18" height="18" rx="3" fill="#10b981" />
    <text x="30" y="223" class="label">C</text>
    <text x="220" y="223" class="value">4.8%</text>

    <rect x="0" y="247" width="18" height="18" rx="3" fill="#8b5cf6" />
    <text x="30" y="261" class="label">HTML</text>
    <text x="220" y="261" class="value">3.5%</text>

    <rect x="0" y="285" width="18" height="18" rx="3" fill="#64748b" />
    <text x="30" y="299" class="label">Other</text>
    <text x="220" y="299" class="value">6.1%</text>
  </g>
</svg>